<svg xmlns="http://www.w3.org/2000/svg" width="23.128" height="19.177" xmlns:v="https://vecta.io/nano"><path d="M22.016 12.839l.465.417-11.779 5.446-1.1.172-.961-.549-.206-1 .687-1 14.006-5.8L12.174-.006 1.199 2.875l8.4 13.3-.326.078-8.3-13.3c-.276.193-.523.424-.733.688-.2.278-.287.621-.244.96.027.428.109.851.244 1.259l7.982 12.836a1.4 1.4 0 0 0 .549.347 1.51 1.51 0 0 0 .828.122 5.53 5.53 0 0 0 1.1-.2l11.779-5.384v-.328l-.391.141z" fill="#0826b9"/><path d="M22.062 13.457c-.074-.157-.116-.327-.125-.5-.031-.279-.031-.56 0-.839.005-.178.048-.353.125-.513a2.41 2.41 0 0 1 .218-.435l.233-.357-13.348 5.562s-.638.5-.7.9a1.22 1.22 0 0 0 .218 1.041.97.97 0 0 0 .841.481 4.49 4.49 0 0 0 1.232-.142z" fill="#fff" stroke="#000" stroke-width=".25"/></svg>