<svg xmlns="http://www.w3.org/2000/svg" viewBox="0 0 240 240"><defs><clipPath id="a"><path d="M0 0h240v240H0" fill="rgba(249,187,187,0.56)" data-name="Rectangle 14" transform="translate(-57580-23260)"/></clipPath><clipPath id="b"><path d="M0 0h240v240H0" fill="#002014" data-name="Path 186" transform="translate(-19044-10068)"/></clipPath></defs><g clip-path="url(#a)" data-name="Mask Group 4" transform="translate( 57580 23260)"><g clip-path="url(#b)" data-name="Mask Group 13" transform="translate(-38536-13192)"><g data-name="Group 67"><path d="m-18809-9862-20-47-2-3a4 4 0 00-3 0 11 11 0 01-7 3 10 10 0 01-10-10 10 10 0 01 8-9 4 4 0 00 3-2 2 2 0 00 0-2l-7-11a16 16 0 00-13-10l-4 2v-35c0-3-3-2-3-2v38a22 22 0 00-7 7l-18 35a33 33 0 00-27-15c-14 0-23 13-31 30l-1 3-2 8h-3v-2 1a78 78 0 00-14-30l1-22h37a10 10 0 00 10-10v-26c0-6 0-9-6-10h-40a52 52 0 01 4-20 44 44 0 01 20-15h50s20 7 23 16 6 10 4 0-20-17-23-18a17 17 0 00 8-11 14 14 0 00-10-13l2-12a13 13 0 00-14-12h-30a13 13 0 00-15 13l1 12a13 13 0 00-10 13 16 16 0 00 6 10l-15 14c-3 4-3 5-4 9a162 162 0 00-3 16v60a38 38 0 00-20-8 30 30 0 00-22 15c-1 2-2 3 0 4s1 0 2-2c4-4 12-14 20-14a34 34 0 01 24 14 90 90 0 01 11 28h-67a100 100 0 01 6-16c0-2 1-3 0-4s-3 0-4 1a100 100 0 00-7 18h-3c-5 0-9 2-9 7a10 10 0 00 10 10l3 16 2 10a11 11 0 00 10 10 223 223 0 00 26 2 223 223 0 00 25-2 11 11 0 00 5-1 24 24 0 00 12 3h32a223 223 0 00 25-2 11 11 0 00 7-3 82 82 0 00 78-13c5-4 3-10 0-16zm-135-191a11 11 0 01 10-10h30a9 9 0 01 9 8l-2 14h-47zm-2 15h53c3 0 6 5 6 9s-3 9-6 9l-53-1a10 10 0 01-7-8c0-4 4-10 7-10zm14 62a6 6 0 01 6 5 99 99 0 01 0 24 6 6 0 01-6 4 550 550 0 01-37 1v-33h37zm61 32a13 13 0 01 10-6 10 10 0 01 10 5l7 12c-5 3-10 7-10 13a13 13 0 00 13 14 22 22 0 00 9-3l19 45v-2c-2 2-3 7-10 10a75 75 0 01-25 10 78 78 0 01-34-3l3-19h1c5 0 7-3 7-8s0-8-5-8h-6a132 132 0 00-8-23zm-68 36a26 26 0 01 20-13 32 32 0 01 24 12 80 80 0 01 10 26h-67a80 80 0 01 12-24zm-98 32s0-3 2-3h157l4 3-4 5h-156l-2-5zm79 40a11 11 0 00 0-3l1-8h1l1 8a11 11 0 00 2 4 16 16 0 01-5-2zm64 3a212 212 0 01-50 2c-2 0-7-7-7-10v-7c0-4-1-4-5-4s-4 0-5 4v8a16 16 0 01-7 7 217 217 0 01-50-2c-3 0-3-3-4-5a260 260 0 00-4-27h142c0 5 0 8-2 12l-1 15a13 13 0 01-7 7zm80-18a75 75 0 01-70 12v-5a82 82 0 00 73-14 7 7 0 01-3 7" data-name="Path 183"/><path d="M-18856-9866a12 12 0 00 9 6 20 20 0 00 3 0 16 16 0 00 9-3 11 11 0 00 5-8 13 13 0 00-2-10 10 10 0 00-9-6 13 13 0 00-10 2c-4 2-7 4-8 8a14 14 0 00 3 10zm0-10a12 12 0 01 5-6 14 14 0 01 6-2 23 23 0 01 2 0 12 12 0 01 8 3 13 13 0 01 3 8 13 13 0 01-4 7 18 18 0 01-10 3 15 15 0 01-7-3 17 17 0 01-3-10" fill="#231100" data-name="Path 184"/><path d="m-18874-9887 4 1a11 11 0 00 7-2 10 10 0 00 3-7 10 10 0 00 0-9 9 9 0 00-7-3 10 10 0 00-13 8c-2 6 0 11 6 12zm-4-10c0-3 5-8 7-8a26 26 0 01 8 4 7 7 0 01 0 4v5a30 30 0 01-9 3l-5-3-1-6" fill="#231100" data-name="Path 185"/></g></g></g></svg>
