<svg xmlns="http://www.w3.org/2000/svg" viewBox="0 0 229 202"><defs><linearGradient id="a" x1="5" x2="5" y2="8"><stop offset="0" stop-color="#9999a5"/><stop offset="1" stop-color="#0c0c3b"/></linearGradient><linearGradient id="b" x1="5" x2="5" y2="10"><stop offset="0" stop-color="#c8aa77"/><stop offset="1" stop-color="#5d441e"/></linearGradient><linearGradient id="c" x1="5" x2="5" y2="10"><stop offset="0" stop-color="#848888"/><stop offset="1" stop-color="#131414"/></linearGradient></defs><path d="M98 125c-4-5-9-8-14-10l-20-5H42l-20 5a32 32 0 00-20 32v38h42" fill="#2a32ff"/><path d="M63 88V110l-10 23L40 109V90" fill="#ffb487"/><path d="M75 39v26A27 27 0 01 50 94a29 29 0 01-26-29V40" fill="#f9c7a6"/><path d="M75 50v-8c1-15-10-28-25-29a27 27 0 00-26 30v6h18a56 56 0 00 31-10" fill="url(#a)"/><path d="M130 126a28 28 0 01 14-9l20-5V98h24v14l22 3c13 4 20 19 20 33v37h-44" fill="#0c2"/><path d="M98 123 70 130a43 43 0 00-31 43v29H190v-30c0-19-13-36-31-42l-28-7" fill="#f6250d"/><path d="M188 94v18l-13 24-12-24V94" fill="#f9a471"/><path d="m116 159 16-36a45 45 0 01 0-14V97L100 95v28" fill="#f6a777"/><path d="M148 38v27c0 23-13 50-32 50-19 0-35-27-35-50V38" fill="#fbc8a7"/><path d="M115 0C95 1 80 18 80 37v14h20a42 42 0 00 30-14l17 9v-9c1-20-14-36-33-37" fill="url(#b)"/><path d="M153 40v26c0 27 13 33 26 33 15-4 20-18 22-33l1-16" fill="#f8c19c"/><path d="M153 55v-10c0-20 10-37 25-37 13 0 24 17 24 37v10h-17c-11 0-22-5-30-13" fill="url(#c)"/><path d="M115 168a4 4 0 00-2 8 4 4 0 00 5-7 4 4 0 00-3-1"/><path d="M132 107v8a50 50 0 01-12 4h-10l-8 10-3-6 1-7v-8l6 4a18 18 0 00 6 2h8a10 10 0 00 6-2 34 34 0 00 6-5" fill="#dc9983"/><path d="m102 130-13 3a78 78 0 00-18 6c-6 1-10 5-13 10-4 2-6 7-6 10l-3 13v30H40v-40a40 40 0 01 8-16c4-6 10-10 16-14a30 30 0 01 17-5l19-5" fill="#800"/><path d="M25 114a48 48 0 00-12 6l-10 10a32 32 0 00-3 12v42h7v-40l4-10 7-8 10-5 16-6-3-5" fill="#001774"/><path d="M40 110V92l5 1a13 13 0 00 6 0 14 14 0 00 5 0l7-4v5l-7 3H45v18" fill="#e59260"/><path d="M76 169v33h5v-33zm80 0v33h5v-33" fill="#8e0202"/><path d="m82 57 14 2 12-3 13-5 10-10 17 10v-5L130 37l-10 8-13 6H82" fill="#e9af8a"/><path d="M24 50v6h10l17-2 20-10 4 12V50l-2-10-9 5-10 4-10 1" fill="#d8a27e"/><path d="m132 123 6-4 8-3 17-4 3 5-12 3-6 3-2 4" fill="#176804"/><path d="M163 112V94a9 9 0 00 4 3l8 2h6a26 26 0 00 7-4v4l-7 4h-7a24 24 0 01-6-3l-2 18" fill="#c1815b"/><path d="M202 54v7h-15a47 47 0 01-17-5 48 48 0 01-13-10l-4 16v-8l2-12 12 8c4 2 9 4 14 4a122 122 0 00 20 0" fill="#d8a17c"/></svg>
