<svg xmlns="http://www.w3.org/2000/svg" width="19.577" height="18.43" viewBox="0 0 19.577 18.43">
  <g id="Group_78" data-name="Group 78" transform="translate(1083.999 494.429)">
    <path id="Subtraction_24" data-name="Subtraction 24" d="M4543.461,1875.359h-10.9l-1.563-8.331h13.749l-1.288,8.33Zm-6.526-7.161a.674.674,0,0,0-.169.021c-.1.026-.159.073-.155.123l.349,5.857c0,.078.142.141.324.144l.012,0a.44.44,0,0,0,.295-.095.073.073,0,0,0,.021-.058l-.35-5.858c0-.049-.068-.095-.17-.119A.682.682,0,0,0,4536.935,1868.2Zm5.424-.011a.528.528,0,0,0-.2.038c-.059.025-.093.061-.1.1l-.922,5.858a.076.076,0,0,0,.016.065.337.337,0,0,0,.24.1h.023c.158,0,.292-.061.3-.137l.92-5.858a.079.079,0,0,0-.018-.067.348.348,0,0,0-.248-.094Zm-2.739.009c-.177,0-.319.06-.325.137l-.35,5.858a.072.072,0,0,0,.021.057.432.432,0,0,0,.295.094c.184,0,.333-.064.333-.144l.35-5.858a.074.074,0,0,0-.022-.056.435.435,0,0,0-.292-.089Zm-5.2-.014h-.017a.347.347,0,0,0-.249.094.079.079,0,0,0-.017.066l.922,5.865c.009.075.136.135.288.136l.024-.007a.342.342,0,0,0,.245-.094.079.079,0,0,0,.017-.066l-.92-5.858c0-.037-.04-.073-.1-.1A.49.49,0,0,0,4534.416,1868.183Z" transform="translate(-5609.311 -2355.636)" fill="rgba(65,200,242,0.52)"/>
    <path id="Path_272" data-name="Path 272" d="M-1064.56-488.607l-1.286,8.332h-.973l1.135-7.356h-12.441l-.182-.976Z" fill="rgba(8,163,232,0.64)"/>
    <path id="Path_273" data-name="Path 273" d="M-1074.59-481.443l-.449-5.859" fill="#84879c"/>
    <path id="Path_275" data-name="Path 275" d="M-1072.41-481.443l-.15-5.858" fill="#84879c"/>
    <path id="Path_277" data-name="Path 277" d="M-1070.07-487.3l-.15,5.858" fill="#84879c"/>
    <path id="Path_279" data-name="Path 279" d="M-1067.59-487.3l-.449,5.858" fill="#84879c"/>
    <path id="Path_281" data-name="Path 281" d="M-1065.85-480.129h-10.9a.141.141,0,0,1-.137-.118l-1.565-8.332a.154.154,0,0,1,.029-.123.136.136,0,0,1,.109-.054h13.748a.136.136,0,0,1,.107.052.156.156,0,0,1,.032.12l-1.286,8.331a.143.143,0,0,1-.138.125Zm-10.782-.3h10.663l1.241-8.033h-13.413Z"/>
    <path id="Path_282" data-name="Path 282" d="M-1066.2-477.433h-1.246v-.882h1.247a.443.443,0,0,1,.423.444.443.443,0,0,1-.423.443Z" fill="#e1e6e9"/>
    <path id="Path_283" data-name="Path 283" d="M-1066.2-477.285h-1.246a.145.145,0,0,1-.1-.045.141.141,0,0,1-.039-.1v-.89a.146.146,0,0,1,.039-.1.142.142,0,0,1,.1-.045h1.247a.59.59,0,0,1,.568.591.59.59,0,0,1-.568.591Zm-1.107-.3h1.107a.3.3,0,0,0,.251-.3.3.3,0,0,0-.251-.3h-1.106Z" fill="#474747"/>
    <path id="Path_284" data-name="Path 284" d="M-1073.81-478.315h4.978v.887h-4.978Z" fill="#e1e6e9"/>
    <path id="Path_285" data-name="Path 285" d="M-1068.83-477.285h-4.978a.145.145,0,0,1-.1-.045.141.141,0,0,1-.039-.1v-.89a.146.146,0,0,1,.039-.1.142.142,0,0,1,.1-.045h4.978a.145.145,0,0,1,.1.045.141.141,0,0,1,.039.1v.887a.146.146,0,0,1-.039.1.142.142,0,0,1-.1.045Zm-4.837-.3h4.7v-.592h-4.7Z" fill="#474747"/>
    <path id="Path_286" data-name="Path 286" d="M-1075.524-475.239a.935.935,0,0,1-.773-.87l-2.038-13.136a1.877,1.877,0,0,0-1.65-1.768h-1.409v1.1h1.41a.939.939,0,0,1,.826.883l2.036,13.136a1.881,1.881,0,0,0,1.561,1.754Z" transform="translate(0 -3.299)" fill="#d1d1d1"/>
    <path id="Path_287" data-name="Path 287" d="M-1074.56-474.136h-1a2.023,2.023,0,0,1-1.7-1.878l-2.036-12.972a.779.779,0,0,0-.688-.727h-1.41a.135.135,0,0,1-.1-.055.2.2,0,0,1-.039-.126v-1.085a.2.2,0,0,1,.039-.126.132.132,0,0,1,.1-.055h1.415a2.024,2.024,0,0,1,1.787,1.89l2.031,12.97a.773.773,0,0,0,.642.713h.995a.128.128,0,0,1,.1.055.214.214,0,0,1,.039.134l-.036,1.089a.165.165,0,0,1-.139.173Zm-6.694-15.937h1.275a1.09,1.09,0,0,1,.963,1.016l2.031,12.969a1.711,1.711,0,0,0,1.429,1.583h.861l.024-.727h-.855a1.081,1.081,0,0,1-.911-1.005l-2.035-12.963a1.71,1.71,0,0,0-1.513-1.6h-1.27Z" transform="translate(0 -3.152)" fill="#474747"/>
    <path id="Path_294" data-name="Path 294" d="M1.618.063A1.276,1.276,0,0,1,2.884,1.473a1.242,1.242,0,0,1-1.266,1.37A1.365,1.365,0,0,1,.2,1.473,1.4,1.4,0,0,1,1.618.063Z" transform="translate(-1075.571 -479.096)" fill="#707583"/>
    <ellipse id="Ellipse_15" data-name="Ellipse 15" cx="0.647" cy="0.683" rx="0.647" ry="0.683" transform="translate(-1074.807 -478.321)" fill="#bbbbcd"/>
    <g id="Group_77" data-name="Group 77">
      <path id="Path_288" data-name="Path 288" d="M-1074.191-476.807a.8.8,0,0,1-.775-.481.853.853,0,0,1,.149-.922.782.782,0,0,1,.882-.2.831.831,0,0,1,.5.776.8.8,0,0,1-.761.831Zm0-1.365a.517.517,0,0,0-.5.311.55.55,0,0,0,.1.594.5.5,0,0,0,.568.128.535.535,0,0,0,.324-.5.562.562,0,0,0-.144-.378A.469.469,0,0,0-1074.191-478.172Z" transform="translate(0.211)"/>
    </g>
    <ellipse id="Ellipse_16" data-name="Ellipse 16" cx="1.411" cy="1.489" rx="1.411" ry="1.489" transform="translate(-1069.371 -479.127)" fill="#707583"/>
    <path id="Path_289" data-name="Path 289" d="M-1067.96-476a1.64,1.64,0,0,1-1.572-.951,1.64,1.64,0,0,1,.3-1.813,1.64,1.64,0,0,1,1.795-.393,1.64,1.64,0,0,1,1.033,1.519A1.6,1.6,0,0,1-1067.96-476Zm0-2.978a1.344,1.344,0,0,0-1.291.779,1.342,1.342,0,0,0,.245,1.487,1.342,1.342,0,0,0,1.472.323,1.345,1.345,0,0,0,.845-1.248,1.31,1.31,0,0,0-1.272-1.34Z"/>
    <path id="Path_290" data-name="Path 290" d="M-1081.112-491.312h-2.018a.834.834,0,0,0-.733.871.835.835,0,0,0,.733.871h2.018a.834.834,0,0,0,.733-.871A.835.835,0,0,0-1081.112-491.312Z" transform="translate(-0.136 -3.117)"/>
    <ellipse id="Ellipse_17" data-name="Ellipse 17" cx="0.647" cy="0.683" rx="0.647" ry="0.683" transform="translate(-1068.607 -478.321)" fill="#bbbbcd"/>
    <path id="Path_291" data-name="Path 291" d="M-1067.96-476.807a.83.83,0,0,1-.8-.481.83.83,0,0,1,.154-.922.83.83,0,0,1,.913-.2.83.83,0,0,1,.523.776.81.81,0,0,1-.788.831Zm0-1.365a.537.537,0,0,0-.516.31.537.537,0,0,0,.1.594.538.538,0,0,0,.588.129.536.536,0,0,0,.337-.5.52.52,0,0,0-.143-.372.52.52,0,0,0-.364-.162Z"/>
    <path id="Path_293" data-name="Path 293" d="M-1067.96-476a1.64,1.64,0,0,1-1.572-.951,1.64,1.64,0,0,1,.3-1.813,1.64,1.64,0,0,1,1.795-.393,1.64,1.64,0,0,1,1.033,1.519A1.6,1.6,0,0,1-1067.96-476Zm0-2.978a1.344,1.344,0,0,0-1.291.779,1.342,1.342,0,0,0,.245,1.487,1.342,1.342,0,0,0,1.472.323,1.345,1.345,0,0,0,.845-1.248,1.31,1.31,0,0,0-1.272-1.34Z" transform="translate(-6)" fill="#060606"/>
  </g>
</svg>
