<svg xmlns="http://www.w3.org/2000/svg" width="30" height="26"  xmlns:v="https://vecta.io/nano"><defs><clipPath id="A"><path transform="translate(-5999 -2353.842)" fill="#dedede" d="M0 0h30v26H0z"/></clipPath></defs><g transform="translate(5999 2353.842)" clip-path="url(#A)"><path d="M-5969.975-2331.527v-9.39c0-3.14-1.766-5.723-4.029-6.033-.153 0-.307.01-.459.03-2.478 0-4.386 2.7-4.386 6.045v9.308z" fill="#67372b"/><path d="M-5973.977-2346.946c-2.25.327-4 2.9-4 6.029v9.32l-.97.03v-9.35c0-3.349 2.009-6.064 4.487-6.064a3.29 3.29 0 0 1 .485.035z" fill="#431307"/><path d="M-5973.21-2328.111v-6.358l-.186-.742.186-2.181h-2.5l.106 3.45-.106 1.147v4.681l1.252.255z" fill="#c48958"/><path d="M-5975.764-2333.779l-2.462 1.317.3 4.606h3.463l-.181-.269a8.57 8.57 0 0 1-1.063-4.662l-.056-.987z" fill="#ffb400"/><path d="M-5975.707-2332.792h-.008l-2.443 1.361-.072-1.111 2.516-1.4.106.571z" fill="#b86400"/><path d="M-5970.639-2332.508l-2.573-1.431c0 2.1-.017 4.255-1.081 5.828l-.172.255h4.156c.335 0 .607-.367.607-.82v-1.936a2.15 2.15 0 0 0-.937-1.896z" fill="#ffb400"/><path d="M-5975.715-2337.389h0v2.919l.008 1.678.63-.35c.099-.067.155-.181.15-.3v-.367c0-.1.068-.178.142-.161a1.44 1.44 0 0 0 .322.037 1.97 1.97 0 0 0 1.253-.533v-2.923h-2.5z" fill="#a16633"/><path d="M-5977.151-2340.185a5.58 5.58 0 0 0-.033.824c.332 2.177 1.637 4.364 2.721 4.364 1.253 0 2.8-2.919 2.8-5.369a5.55 5.55 0 0 0-1.1-3.654c-.149-.166-.272-.151-.451-.268-.056-.037-.122.006-.138.088-.204 1.658-1.3 3.07-2.854 3.681l-.872.2c-.042.013-.073.134-.073.134z" fill="#c48958"/><path d="M-5976.02-2339.71a5.31 5.31 0 0 0 3.26-4.31 2.5 2.5 0 0 0-.492-.427c-.056-.037-.122.006-.138.088a4.55 4.55 0 0 1-2.833 3.688l-.963.278c-.051.022-.082.075-.077.13h0c.006.301.033.602.079.9z" fill="#a16633"/><path d="M-5988.652-2331.985l-3.51-1.69a1.37 1.37 0 0 1-2.465-.118l-2.534 1.423c-.623.36-.994 1.039-.959 1.758v1.854c0 .453.272.82.607.82l.121.082h2.725l1.213-.21 1.292.21h2.242l1.271-.3z" fill="#84eaff"/><path d="M-5992.249-2336.569h-2.3l.01 2.463c.218.34.362.737.656.853.663.236 1.398-.054 1.721-.679h0v-1.3z" fill="#f2cc99"/><path d="M-5994.111-2333.242l-2.64 1.614-.181.105a1.03 1.03 0 0 0-.451.91v2.756h-.186c-.335 0-.607-.367-.607-.82v-1.936a2.15 2.15 0 0 1 .944-1.894l2.45-1.286c.199.212.425.397.671.551z" fill="#437e8a"/><path d="M-5989.3-2332.346l-2.862 4.493h-2.5l-2.089-3.775-.4-.833 1.372-.645 1.117-.833a1.4 1.4 0 0 0 2.5 0h0z" fill="#f5f4f4"/><path d="M-5993.878-2336.569h-.788v2.8l.626.526a.69.69 0 0 1 .162-.011v-1.37c0-.1.066-.177.14-.161.107.023.215.034.324.034a2.1 2.1 0 0 0 1.253-.487v-1.33z" fill="#e8b381"/><path d="M-5993.879-2333.253h0l-2.873 1.625-.49-.879 2.57-1.432a1.69 1.69 0 0 0 .793.686z" fill="#aaa4a4"/><path d="M-5990.53-2341.161c0-2.576-.978-4.147-2.885-4.147s-2.885 1.571-2.885 4.147c-.017.547.029 1.094.139 1.63.475 1.992 1.71 3.712 2.746 3.712s2.249-1.692 2.733-3.661c.118-.553.169-1.119.152-1.684z" fill="#f2cc99"/><path d="M-5991.787-2344.792c-.194.029-.382.094-.552.192v.008a2.01 2.01 0 0 0-.124-.562c-.308-.105-.631-.157-.956-.154-1.906 0-2.945 1.571-2.945 4.147.003.549.07 1.096.2 1.63l.138-.179a6.7 6.7 0 0 1 1.763-1.826c.458-.27.845-.345 1.145-.7.058-.069.147-.05.186.04.247.493.608.92 1.054 1.245.493.405.899.906 1.194 1.472.138-.551.209-1.116.213-1.684.142-1.349-.344-2.687-1.318-3.631z" fill="#e8b381"/><path d="M-5992.334-2345.576a1.64 1.64 0 0 1 .765-.3 1.5 1.5 0 0 1 1.257.653c1.147 1.569.545 3.989.1 5.051-.041.1-.141.114-.2.029-.418-.642-.92-1.227-1.491-1.738a3.26 3.26 0 0 1-.608-.706 3.51 3.51 0 0 1-.34-1.028z" fill="#414141"/><path d="M-5991.69-2344.338a5.05 5.05 0 0 1-.812 1.751 3.3 3.3 0 0 1-.423-.965l.587-2.116a1.58 1.58 0 0 1 .77-.211 4.5 4.5 0 0 1-.122 1.541z"/><path d="M-5992.507-2346.335a1.4 1.4 0 0 0-1-.785 2.9 2.9 0 0 0-2.391 1.086c-1.523 1.5-1.211 4.451-.734 5.76.041.112.154.126.208.025.083-.155.215-.27.4-.526a5.05 5.05 0 0 1 1.826-1.581c1.429-.764 2.133-2.42 1.691-3.979z" fill="#414141"/><path d="M-5993.501-2347.117c-.628.144-1.199.469-1.644.935-1.319 1.304-1.234 3.891-.877 5.404a5.55 5.55 0 0 0-.4.637c-.054.1-.167.087-.208-.025-.478-1.309-.822-4.516.7-6.021a2.77 2.77 0 0 1 2.429-.93z"/><path d="M-5982.347-2339.863h-3.155l.149 2.843-.149 1.5c.112.231.253.447.419.643.625.605 1.601.654 2.283.115a3.6 3.6 0 0 0 .452-.758h0v-1.803l-.128-.283z" fill="#d8a16d"/><path d="M-5979.053-2333.683l-1.65-.919-1.644-.675c-.277.608-.874 1.007-1.541 1.032s-1.292-.329-1.614-.915l-3.173 1.477a2.58 2.58 0 0 0-1.127 2.274l.061 3.389.611.164h3.982l1.289-.395 1.142.395h4.8v-3.553a2.58 2.58 0 0 0-1.136-2.274z" fill="#70d400"/><path d="M-5984.714-2339.863h-.788v4.346c.1.154.054.415.17.532.131.134.424.12.571.207h0v-2.022c0-.106.073-.184.149-.16a2.42 2.42 0 0 0 .688.142c.565-.002 1.116-.179 1.578-.505v-2.54h-2.368z" fill="#d29150"/><path d="M-5984.831-2334.778l-1.824 1.055-1.84 1.025a1.46 1.46 0 0 0-.639 1.289v3.553h-.789v-3.553a2.58 2.58 0 0 1 1.127-2.274l1.641-.914.749-.313.87-.528c.174.277.417.505.705.66z" fill="#217101"/><path d="M-5980.704-2334.601l-.068.107a13.79 13.79 0 0 0-1.95 6.548v.091h-2.431v-.059c-.078-2.021-.59-4.002-1.5-5.808-.15-.29-.242-.543-.413-.815l-.018-.032 1.584-.863c.187.278.442.503.741.655.416.234.909.287 1.364.147s.835-.459 1.049-.885h0z" fill="#f5f4f4"/><path d="M-5984.761-2334.779l-1.894 1.055q-.225-.435-.481-.842l-.018-.035 1.652-.92c.133.212.298.401.49.562l.049.039a1.96 1.96 0 0 0 .202.141z" fill="#9a9a9a"/><path d="M-5980.494-2344.674c0-3.085-1.148-5.558-3.431-5.558s-3.319 2.492-3.319 5.579a12.14 12.14 0 0 0-.106 1.582c.341 2.636 1.522 5.188 3.424 5.188 2.025 0 3.233-2.894 3.48-5.7.031-.357-.049-.742-.049-1.091z" fill="#d8a16d"/><path d="M-5980.399-2344.645c0-2.256-.666-4.2-1.916-5.08-.04.067-.121.025-.107-.073a2.74 2.74 0 0 0-1.5-.433c-2.283 0-3.527 2.5-3.527 5.586 0 .527.033 1.053.1 1.575a1.98 1.98 0 0 1 .195-.253c.6-.759 1.454-.787 1.545-1.581.011-.1.081-.164.152-.137a1.94 1.94 0 0 0 2.151-1.336c.036-.1.129-.12.189-.048a1.08 1.08 0 0 0 1 .37c.056-.008.11.037.128.11.343 1.355 1.283.858 1.546 2.363l.048-1.062z" fill="#d29150"/><path d="M-5980.086-2348.842a1.3 1.3 0 0 0-.14-.039c-.044-.019-.064-.07-.045-.114.098-.286.137-.588.116-.889a1.56 1.56 0 0 0-1.153-1.556 1.1 1.1 0 0 0-1.011.493c-.035.047-.093.023-.1-.041-.025-.857-.666-1.571-1.516-1.687a1.32 1.32 0 0 0-.971.464c-.011.014-.029.021-.046.018s-.033-.013-.04-.029c-.195-.362-.564-.595-.974-.616-.645 0-1.178.649-1.261 1.489.001.035-.023.065-.057.072a1.4 1.4 0 0 0-.412.1 2.5 2.5 0 0 0-1.219 2.4c-.009.55.154 1.09.465 1.544a.1.1 0 0 1 .015.058c-.029.556-.011 1.113.054 1.665a2.1 2.1 0 0 0 .931 1.67.9.9 0 0 1 .3-.713c.371-.414 1.011-.489 1.172-1.252.008-.04.037-.066.067-.059.142.036.286.06.432.069 1.021-.111 1.847-.88 2.029-1.891.016-.057.072-.067.1-.019a1.39 1.39 0 0 0 1.166.764 1.13 1.13 0 0 0 .4-.075c.031-.012.064.012.073.054.372 1.642 1.3 1.112 1.3 2.645.61-.372.974-1.644 1.148-2.489.22-.789-.122-1.627-.831-2.036z" fill="#5a3c35"/><path d="M-5987.154-2344.551c-.189.228-.283.519-.263.814a2.22 2.22 0 0 1-1.036-1.728 9.97 9.97 0 0 1-.063-1.657.1.1 0 0 0-.015-.057 2.98 2.98 0 0 1-.468-1.649c-.069-.973.44-1.895 1.3-2.355a2.87 2.87 0 0 0-.634 1.863 2.98 2.98 0 0 0 .466 1.649.1.1 0 0 1 .015.057 9.97 9.97 0 0 0 .063 1.657 2.49 2.49 0 0 0 .633 1.406z" fill="#3a211b"/></g></svg>