<svg xmlns="http://www.w3.org/2000/svg" width="20.517" height="18.3"  xmlns:v="https://vecta.io/nano"><path d="M.309 9.5L9.373.25h1.454l9.094 9.25h-1.949L9.991 1.742 2.165 9.5H.309" fill="#f1cd59" stroke="#670000" stroke-width=".5"/><path d="M15.602 4.148v-.591h1.694v2.324z" fill="#e66400" stroke="#770909" stroke-width=".2"/><g stroke-width=".1"><path d="M.352 17.432h2.383v-7.387h1.146v7.387h12.6v-7.387h1.041v7.387h2.525v.821h-20v-.821z" fill="#02370d" stroke="#013308"/><path d="M5.444 17.289v-6.076h3.919v6.076z" fill="#0e0f0e" stroke="#00ab06"/><g stroke="#0dbe00"><path d="M11.741 12.358h3.557v3.764h-3.557z" fill="#111411"/><path d="M5.785 11.644v5.328l1.063-.687v-4.219zm3.234 0v5.328l-1-.687v-4.219z" fill="#f1cd59"/></g><path d="M12.161 12.903v2.864l1.1-.345v-2.194z" fill="none" stroke="#707070"/><path d="M12.161 12.903v2.864l1.1-.345v-2.194zm2.772 0v2.864l-1.156-.345v-2.194z" fill="#f1cd59" stroke="#00ab06"/></g></svg>