<svg xmlns="http://www.w3.org/2000/svg" viewBox="0 0 240 220"><path d="M0 0h240v220H0" fill="rgba(229,229,229,0)"/><path d="m109 216 99-55V65l-34-20v10a26 26 0 01 6 0l5 3v5c0 3-1 2-4 4a10 10 0 01-6 3l-8-1a6 6 0 01-5-4V60a10 10 0 01 6-4l6-1v-10L117 80v16h3v4a10 10 0 01 0 4 6 6 0 01-5 3 12 12 0 01-7 0H100l-4-4a4 4 0 01 0-3l3-3v-8l-21 14 1 95 30 17-25-20v-81l19 10 6 91 2-92 32-19 14 20c-2 0-4 3-5 5a18 18 0 00-2 8v6l3 2a10 10 0 00 4 0l-2 20 15-7-3-16 3-4 3-5V120l-3-2a10 10 0 00-5 0 18 18 0 00-5 2l-3 3-14-19 60-36v88" fill="#228200"/><path d="m33 122 4 2h6l6-1 2-1V110h-6v-4H50V69l4-10 7-13a34 34 0 01 6-10l10-10a14 14 0 01 8-2 16 16 0 01 7 0c2 0 3 0 5 3l1 4V100a8 8 0 00 2 3l4 1h4a13 13 0 00 5-1l2-2a7 7 0 00 1-3V25a43 43 0 00-5-8 16 16 0 00-5-6c-1-2-4-3-6-4L90 5 80 6a28 28 0 00-12 5 46 46 0 00-11 10c-4 4-8 8-10 13a58 58 0 00-8 15 95 95 0 00-6 16v56" fill="#777"/></svg>
