<svg xmlns="http://www.w3.org/2000/svg" width="24" height="22.221" xmlns:v="https://vecta.io/nano"><path fill="rgba(229,229,229,0.08)" d="M0 .221h24v22H0z"/><path d="M7.741 22.002l10.351-5.428V6.445l-2.638-1.383v.691c.131.01.25.081.32.192.105.15.105.35 0 .5-.098.215-.291.371-.521.423-.222.105-.468.147-.712.123-.252.012-.503-.03-.737-.123-.259-.091-.269-.094-.4-.277s-.174-.244-.113-.454.51-.384.51-.384v-1l-5.4 3.05v1.652c.151.044.288.125.4.236a.57.57 0 0 1 .094.381.79.79 0 0 1-.188.4c-.166.186-.1.2-.4.327a1.84 1.84 0 0 1-.793.2 1.55 1.55 0 0 1-.68-.109c-.181-.051-.34-.16-.454-.309a.66.66 0 0 1-.208-.381c-.024-.222-.028-.24.075-.4.119-.137.259-.254.416-.345v-.781l-2.38 1.252V20.2L7.74 22l-2.928-2.088V10.8l2.154 1.525L7.74 22v-9.567l4.666-2.741.113 2.741a5.01 5.01 0 0 0-.36.635 1.18 1.18 0 0 0-.151.527c-.052.208-.052.427 0 .635.048.182.139.35.265.49l.34.091-.094 2.087 1.492-.926-.208-1.616.415-.526a1.7 1.7 0 0 0 .228-.544 1.15 1.15 0 0 0 0-.617c-.013-.224-.092-.439-.228-.617-.161-.213-.137-.209-.415-.236-.241-.044-.49.001-.7.127-.225.124-.423.29-.584.49l-.113-2.741 5.079-2.827v9.108z" fill="#710101"/><path d="M6.659 10.143a.48.48 0 0 0 .246.218c.152.101.333.151.516.141.263.015.526-.034.766-.141.253-.115.239-.469.239-.469v-4.06c.033-.434.147-.858.336-1.25.254-.468.561-.904.917-1.3l.954-.823c.201-.168.413-.322.635-.461.266-.17.548-.313.842-.428.193-.064.397-.092.6-.082a.84.84 0 0 1 .448.082c.154.107.154.107.318.345.118.21.2.438.243.675v3.883a.67.67 0 0 0 .262.2c.131.051.272.073.412.066.219.016.252.066.467 0 .14-.022.27-.085.374-.181.072-.068.113-.164.112-.263l.075-3.9a2.39 2.39 0 0 0-.187-.823c-.1-.273-.26-.52-.468-.724a1.82 1.82 0 0 0-.691-.527 1.87 1.87 0 0 0-1.01-.287c-.427-.043-.857-.043-1.284 0a4.6 4.6 0 0 0-1.675.611 6.39 6.39 0 0 0-1.679 1.271 6.2 6.2 0 0 0-1.16 1.481 3.28 3.28 0 0 0-.449 1.185c-.096.359-.149.728-.158 1.1z" fill="#777"/></svg>