<svg height="22.2" viewBox="0 0 13.2 22.2" width="13.2" xmlns="http://www.w3.org/2000/svg"><path d="m11.05 0h-9.1a2.009 2.009 0 0 0 -1.95 2.063v17.875a2.009 2.009 0 0 0 1.95 2.062h9.1a2.009 2.009 0 0 0 1.95-2.062v-17.875a2.009 2.009 0 0 0 -1.95-2.063zm-4.55 20.625a1.377 1.377 0 0 1 0-2.75 1.377 1.377 0 0 1 0 2.75zm5.167-4.666c.005.556-.182.994-.617 1h-9.1c-.45.038-.622-.306-.647-.837v-13.544c0-.641.166-1.219.647-1.219h9.1c.435 0 .617.578.617 1.219z" fill="#028797" stroke="#090060" stroke-width=".2" transform="translate(.1 .1)"/></svg>