<svg xmlns="http://www.w3.org/2000/svg" width="23" height="16" viewBox="0 0 23 16">
  <path id="Icon_ionic-ios-arrow-round-back" data-name="Icon ionic-ios-arrow-round-back" d="M21.912,11.539a1.037,1.037,0,0,0-.008,1.437l4.638,4.757H8.868a1.016,1.016,0,0,0,0,2.031H26.543L21.9,24.522A1.045,1.045,0,0,0,21.9,25.96a.974.974,0,0,0,1.4-.008l6.3-6.484h0a1.143,1.143,0,0,0,.206-.32.988.988,0,0,0,.076-.391,1.03,1.03,0,0,0-.283-.711l-6.3-6.484A.959.959,0,0,0,21.912,11.539Z" transform="translate(-7.382 -10.752)" fill="#3787ff" stroke="#0047b2" stroke-width="1"/>
</svg>
