<svg xmlns="http://www.w3.org/2000/svg" xmlns:xlink="http://www.w3.org/1999/xlink" width="20" height="20" viewBox="0 0 20 20">
  <defs>
    <style>
      .cls-1, .cls-4 {
        fill: #fff;
      }

      .cls-1 {
        stroke: #707070;
      }

      .cls-2 {
        clip-path: url(#clip-path);
      }

      .cls-3 {
        fill: #001858;
      }

      .cls-5 {
        fill: #ff3d00;
      }
    </style>
    <clipPath id="clip-path">
      <path id="Path_38" data-name="Path 38" class="cls-1" d="M0,0H20V20H0Z" transform="translate(-586 -318)"/>
    </clipPath>
  </defs>
  <g id="ProfileGreen_1_" data-name="ProfileGreen (1)" class="cls-2" transform="translate(586 318)">
    <path id="Path_33" data-name="Path 33" class="cls-3" d="M-579.631-311.832a1.46,1.46,0,0,0,.29.729l.364-.091.469,1.512.467.772-1.592,1.092-2.8,1.044c-.7.522-1.16,2.611-1.16,2.611l-.638,4.525,2.908.348v-1.955l.223,1.955,5.18.389-2.5-6.379.379-3.63a3.658,3.658,0,0,0,2,1.346c1.03.087,2.022-1.062,2.022-1.062l.473,3.136-2.375,6.589,5.218-.389.223-1.955v1.955l2.55-.58-.232-2.552-.464-2.379-1.16-1.973-4.234-1.852.568-.853.244-.63.268-1.085a.788.788,0,0,0,.71-.638c.1-.353.218-1.037,0-1.324l-.38.119a3.81,3.81,0,0,0-.113-3.408,3.379,3.379,0,0,0-1.7-1.043l-.53-.181a8.358,8.358,0,0,0-1.433-.331.327.327,0,0,0-.116.012.6.6,0,0,1-.214.024,1.477,1.477,0,0,0-.573.1,4.11,4.11,0,0,0-2.258,2.264,5.474,5.474,0,0,0,.205,2.491c-.041.027-.363-.039-.393,0C-579.952-312.828-579.727-312.185-579.631-311.832Zm.6-2.695,4.539-.507.072-.01c1.152-1,.911-.723,1.421-1.234a5.721,5.721,0,0,0-.545,1.44s.761,1.338.607,1.8a.31.31,0,0,0,.022.243.31.31,0,0,0,.19.152,2.833,2.833,0,0,1-.108.666.219.219,0,0,1-.008.035.526.526,0,0,1-.158.341c-.066.048-.109.326-.121.406-.205,1.456-1.555,3.258-2.919,3.258-1.147,0-2.628-1.788-2.822-3.377-.01-.083.064-.24,0-.29a.542.542,0,0,1-.161-.351.066.066,0,0,0-.007-.036,2.9,2.9,0,0,1-.107-.634.306.306,0,0,0,.164-.064.3.3,0,0,0,.114-.3c-.219-.779-.318-.744-.171-1.54Z"/>
    <g id="Group_21" data-name="Group 21">
      <path id="Path_35" data-name="Path 35" class="cls-4" d="M-573.713-308.384l.093-.117a.314.314,0,0,1-.007-.039Zm-4.652-.127-.007-.028-.006.033Z"/>
    </g>
    <path id="Path_36" data-name="Path 36" class="cls-5" d="M-576.9-307.26l1.91,2.385-.914,5.464-1-5.363,1.828-2.487a1.8,1.8,0,0,1-1.828,0Z"/>
  </g>
</svg>
