<svg xmlns="http://www.w3.org/2000/svg" viewBox="0 0 240 240"><path d="m68 201 4 10 6 8 7 3 6 2h5l8 10 10 6h10l8-6 7-5 6 3 8-3 8-5 12-5a56 56 0 00 15-5l17-13 28-62-20 50 8-6 14-40 1-14 4-25-7 28H230l-5-5-1-7 1-14 8-4h8L240 100a33 33 0 00-6-4 8 8 0 00-5-1c-3 0-4-2-7 1-3 3-6 6-7 10a10 10 0 00-2 7 26 26 0 01 10 7v9l-20 40-20 32-15 16-23 6 19-11 15-15 20-32 10-10 13-28-8 14-4 5s-5 2-7 0-2-8 0-20l7-2 12 1a14 14 0 00-4-7c-4-3-5-6-10-5s-10 7-10 7l-20 33-48 43c14-2 44-27 44-27l-15 17-37 30-20 8-13-4 14-1 5-10 20-13 13-13 13-10 16-26-14 16c-3 3-4 5-6 2a30 30 0 01-2-16c0-4 2-7 4-10h9l6 3 3 3 1-5s-1-10-7-11a16 16 0 00-18 3A70 70 0 00 130 150l-25 15-20-5-50-61 9 3 11 10 38 40 12 6 13-5-60-44-21-15 20 13 56 38 13 6-51-36-40-23a42 42 0 01 0-14 40 40 0 00 0-19 29 29 0 00-10-10s-5-5-9-2A27 27 0 00 11 60l4-10 7 5 5 8C30 67 20 78 20 78s-3 7-6 6-2-6-3-11a20 20 0 01 0-8L0 76v16l4 20v13l8 15 10 5 10 13-3 14-4 27a33 33 0 00 3 20c5 10 5 13 18 18a90 90 0 00 35 1l17-6-34-3-22-16a36 36 0 01-8-12L33 180s0-24 2-21L50 183" fill="#875338"/><path d="M174 123h-80l-7-4 1-65 5-6h6V25a38 38 0 01 5-10l2-2 7-7c4-3 7-5 10-5h1l10-1a54 54 0 01 8 1 30 30 0 01 16 6 17 17 0 01 8 8v1l3 12v20h5l6 6v65l-6 4zM130 85l-2 21h16l-3-20 3-2c2-3 3-5 3-8a7 7 0 00-3-6c-3-3-3-3-7-3a10 10 0 00-9 3c-2 0-4 4-4 6a9 9 0 00 2 7c1 2 3 2 4 2zm8-71a29 29 0 00-6 0c-4 1-8 3-10 6a17 17 0 00-6 7v21h40v-20A20 20 0 00 150 20l-1-2a10 10 0 00-7-3l-6-1" fill="#00109e"/></svg>
