<svg xmlns="http://www.w3.org/2000/svg" width="421.595" height="424.978" xmlns:v="https://vecta.io/nano"><defs><filter id="A" x="0" y="0" width="421.595" height="424.978" filterUnits="userSpaceOnUse"><feOffset/><feGaussianBlur stdDeviation="12.5" result="A"/><feFlood/><feComposite operator="in" in2="A"/><feComposite in="SourceGraphic"/></filter><radialGradient id="B" cx=".5" cy=".5" r=".5"><stop offset="0" stop-color="#fe8038"/><stop offset="1" stop-color="#f83807"/></radialGradient><filter id="C" x="76.838" y="78.467" width="268" height="268" filterUnits="userSpaceOnUse"><feOffset/><feGaussianBlur stdDeviation="3" result="A"/><feFlood/><feComposite operator="in" in2="A"/><feComposite in="SourceGraphic"/></filter><filter id="D" x="94.966" y="79.083" width="216.522" height="229.42" filterUnits="userSpaceOnUse"><feOffset/><feGaussianBlur stdDeviation="5" result="A"/><feFlood/><feComposite operator="in" in2="A"/><feComposite in="SourceGraphic"/></filter><filter id="E" x="115.002" y="133.973" width="64.131" height="108.404" filterUnits="userSpaceOnUse"><feOffset/><feGaussianBlur stdDeviation="3.5" result="A"/><feFlood/><feComposite operator="in" in2="A"/><feComposite in="SourceGraphic"/></filter><filter id="F" x="116.945" y="248.191" width="54.046" height="49.891" filterUnits="userSpaceOnUse"><feOffset/><feGaussianBlur stdDeviation="1.5" result="A"/><feFlood/><feComposite operator="in" in2="A"/><feComposite in="SourceGraphic"/></filter></defs><g transform="translate(6357.838 3313.467)"><g transform="translate(-6357.84 -3313.47)" filter="url(#A)"><path d="M348.257,150.081H297.518a129.443,129.443,0,0,1,0,50.08c5.888,0,38.535-.686,50.739,0C327.484,326.71,217.824,350.6,175,350,81.208,349.377,14.318,284.279,1.662,199.865H52.235c-3.417-19.136-2.929-34.952.488-49.7H1.662C10.755,89.01,59.645.033,177.208.033,299.019.033,345.25,109.227,348.257,150.081Z" transform="translate(35.84 37.47)" fill="#fff"/></g><g transform="translate(-6357.84 -3313.47)" filter="url(#C)"><circle cx="125" cy="125" r="125" transform="translate(85.84 87.47)" fill="url(#B)"/></g><g transform="translate(-6357.84 -3313.47)" filter="url(#D)"><path d="M70.052.616c11.23 1.461 33.115 16.3 37.738 21.145l47.861 178.275h-39.086c-2.775-7.86-10.558-34.144-26.448-41.993-10.608-4.542-27.59 2.587-34.348 6.249-31.384 15.319-46.118 11.1-59.457 3.728-13.044-7.148-25.479-38.973-27.184-53.85 12.167 15.328 23.149 32.511 57.863 28.836 9.1-.964 36.726-12.1 44.836-11.112 4.444.542 17.034.228 30.341 15.436L70.261 26.315c-.549-.819-.938-3.1-4.179-.3-8.97 6.409-20.4 23.88-22.96 35.314 11.733-1.911 17.112 2.511 21.387 8.038 11.643 24.982-10.1 35.741-24.783 33.289-21.371-4.313-23.642-22.112-23.867-26.478C15.87 49.405 29.666 13.864 70.052.616z" transform="translate(140.84 93.47)" fill="#fff"/></g><g transform="translate(-6357.84 -3313.47)" filter="url(#E)"><path d="M41.8,12.769a277.83,277.83,0,0,0-5.969,34.488C21.984,48.106,9.3,45.691-1.336,33.693c.4-9.467,13.587-52.325,29.869-73.686C17.631-3.23,34.945,9.159,41.8,12.769Z" transform="translate(126.84 184.47)" fill="#fff"/></g><g transform="translate(-6357.84 -3313.47)" filter="url(#F)"><path d="M2.8-5.776C9.124,2.553,19.712,14.885,44.325,14.664c.884,6.411,2.11,14.22,3.328,20.452-4.831-.046-27.093,0-42.164,0A180.325,180.325,0,0,1,2.8-5.776Z" transform="translate(118.84 258.47)" fill="#fff"/></g></g></svg>